<svg width="17" height="20" viewBox="0 0 17 20" fill="none" xmlns="http://www.w3.org/2000/svg">
<g clip-path="url(#clip0_0_369)">
<path d="M16.1238 19.9895H0.863994C0.635375 19.9895 0.416074 19.8967 0.254131 19.7316C0.0921879 19.5664 0.000804998 19.3423 0 19.1083L0 15.9075C0 14.0908 0.705144 12.3485 1.96031 11.0639C3.21547 9.7793 4.91784 9.05762 6.69291 9.05762H10.3071C12.0822 9.05762 13.7845 9.7793 15.0397 11.0639C16.2949 12.3485 17 14.0908 17 15.9075V19.1083C16.9996 19.2252 16.9766 19.3409 16.9322 19.4487C16.8879 19.5564 16.8231 19.6541 16.7416 19.736C16.6601 19.818 16.5635 19.8826 16.4575 19.9261C16.3515 19.9696 16.2381 19.9911 16.1238 19.9895V19.9895ZM1.72799 18.2396H15.272V15.9075C15.2712 14.5598 14.748 13.2675 13.8171 12.3143C12.8863 11.361 11.6239 10.8247 10.3071 10.823H6.69291C5.3761 10.8247 4.11373 11.361 3.18289 12.3143C2.25204 13.2675 1.72879 14.5598 1.72799 15.9075V18.2396Z" fill="#1D1818"/>
<path d="M8.54868 10.4244C7.58403 10.4275 6.64024 10.1372 5.83713 9.59025C5.03401 9.04333 4.40778 8.26452 4.03794 7.35268C3.6681 6.44084 3.57132 5.43709 3.7599 4.46885C3.94847 3.50062 4.41389 2.61156 5.09707 1.91454C5.78026 1.21752 6.65039 0.743977 7.59702 0.55402C8.54365 0.364063 9.52408 0.46626 10.4139 0.847639C11.3036 1.22902 12.0626 1.87238 12.5945 2.69605C13.1263 3.51972 13.4071 4.48655 13.401 5.47382C13.393 6.78697 12.8787 8.04377 11.97 8.97087C11.0614 9.89797 9.83175 10.4204 8.54868 10.4244V10.4244ZM8.54868 2.26058C7.93065 2.26058 7.32648 2.448 6.81245 2.79916C6.29842 3.15031 5.89756 3.64948 5.6605 4.23362C5.42344 4.81776 5.3608 5.46069 5.48049 6.08124C5.60018 6.70179 5.89683 7.27213 6.33299 7.72026C6.76915 8.16839 7.32527 8.47421 7.93112 8.59912C8.53698 8.72403 9.16541 8.66241 9.73708 8.42206C10.3087 8.18171 10.798 7.7734 11.1431 7.24867C11.4882 6.72395 11.6737 6.10634 11.6761 5.47382C11.6773 5.05255 11.5973 4.63518 11.4407 4.24559C11.2841 3.856 11.054 3.50184 10.7635 3.20338C10.473 2.90492 10.1279 2.66802 9.74783 2.50625C9.36778 2.34447 8.96029 2.26099 8.54868 2.26058V2.26058Z" fill="#1D1818"/>
</g>
<defs>
<clipPath id="clip0_0_369">
<rect width="17" height="19.4974" fill="white" transform="translate(0 0.492188)"/>
</clipPath>
</defs>
</svg>
