<svg width="14" height="15" viewBox="0 0 14 15" fill="none" xmlns="http://www.w3.org/2000/svg">
<path d="M4.28954 5.7368L6.99999 8.51822L9.71044 5.73682C9.73734 5.70823 9.76952 5.68543 9.80511 5.66974C9.84069 5.65406 9.87897 5.6458 9.91769 5.64545C9.95642 5.64511 9.99483 5.65268 10.0307 5.66773C10.0665 5.68278 10.0991 5.705 10.1265 5.73311C10.1539 5.76121 10.1755 5.79463 10.1902 5.83141C10.2048 5.86819 10.2122 5.90761 10.2119 5.94735C10.2115 5.98709 10.2035 6.02636 10.1882 6.06288C10.1729 6.09939 10.1507 6.13242 10.1229 6.16003L7.20619 9.15305C7.17911 9.18084 7.14696 9.20289 7.11158 9.21794C7.0762 9.23298 7.03828 9.24072 6.99998 9.24072C6.96168 9.24072 6.92376 9.23298 6.88837 9.21794C6.85299 9.20289 6.82084 9.18084 6.79377 9.15305L3.8771 6.16003C3.82397 6.10358 3.79457 6.02798 3.79524 5.9495C3.7959 5.87102 3.82658 5.79596 3.88065 5.74046C3.93473 5.68497 4.00789 5.65349 4.08436 5.65281C4.16083 5.65213 4.23451 5.6823 4.28952 5.73682L4.28954 5.7368Z" fill="black"/>
</svg>
