<svg width="24" height="25" viewBox="0 0 24 25" fill="none" xmlns="http://www.w3.org/2000/svg">
<path d="M18.4295 17.2683H10.6657C10.0984 17.2723 9.54508 17.0854 9.0887 16.7356C8.63232 16.3859 8.29742 15.8921 8.13417 15.3282L4.40978 2.80674C4.34711 2.5954 4.22052 2.41062 4.04874 2.27978C3.87697 2.14895 3.66915 2.07901 3.45608 2.08033H0.831215C0.722442 2.08053 0.614697 2.0585 0.514131 2.01548C0.413565 1.97247 0.322147 1.90932 0.245098 1.82964C0.0894898 1.66872 0.00185288 1.45024 0.00146613 1.22226C0.00107938 0.994289 0.0879745 0.775491 0.243036 0.614004C0.398097 0.452517 0.608622 0.361569 0.828298 0.361168H3.45316C4.02098 0.356543 4.57494 0.543133 5.03191 0.892943C5.48888 1.24275 5.82422 1.73692 5.98761 2.30128L6.74882 4.86187H21.3314C21.7718 4.86239 22.2052 4.97665 22.5925 5.19434C22.9797 5.41204 23.3087 5.72633 23.5497 6.10888C23.7908 6.49144 23.9363 6.93022 23.9731 7.38569C24.01 7.84116 23.937 8.29898 23.7609 8.71789L20.8443 15.6218C20.6384 16.1092 20.3007 16.5242 19.872 16.8165C19.4434 17.1087 18.9423 17.2657 18.4295 17.2683V17.2683ZM7.26505 6.58104L9.71492 14.8228C9.77692 15.0342 9.90286 15.2192 10.0741 15.3506C10.2453 15.482 10.4528 15.5527 10.6657 15.5522H18.4295C18.6216 15.5533 18.81 15.4967 18.972 15.3893C19.1339 15.2819 19.2625 15.1283 19.3423 14.9468L22.2588 8.04294C22.3253 7.88568 22.3529 7.71369 22.3392 7.54255C22.3255 7.37141 22.2708 7.20654 22.1801 7.06287C22.0895 6.91921 21.9657 6.80128 21.8201 6.71979C21.6744 6.63829 21.5115 6.59581 21.346 6.59617L7.26505 6.58104Z" fill="#1D1818"/>
<path d="M10.727 24.9894C10.1997 24.9894 9.68436 24.8271 9.24599 24.5231C8.80762 24.2192 8.46595 23.7871 8.26419 23.2816C8.06243 22.7761 8.00964 22.2199 8.1125 21.6833C8.21536 21.1466 8.46924 20.6537 8.84204 20.2668C9.21485 19.8799 9.68983 19.6164 10.2069 19.5097C10.724 19.403 11.26 19.4577 11.7471 19.6671C12.2342 19.8765 12.6505 20.2311 12.9434 20.686C13.2363 21.141 13.3927 21.6758 13.3927 22.223C13.3919 22.9564 13.1108 23.6596 12.6111 24.1782C12.1113 24.6968 11.4337 24.9886 10.727 24.9894V24.9894ZM10.727 21.1757C10.5274 21.1757 10.3323 21.2371 10.1663 21.3522C10.0004 21.4673 9.87105 21.6308 9.79467 21.8222C9.7183 22.0135 9.69831 22.2241 9.73725 22.4273C9.77619 22.6304 9.8723 22.817 10.0134 22.9635C10.1546 23.1099 10.3344 23.2097 10.5301 23.2501C10.7259 23.2905 10.9288 23.2697 11.1131 23.1905C11.2975 23.1112 11.4551 22.977 11.566 22.8048C11.6769 22.6325 11.7361 22.4301 11.7361 22.223C11.7353 21.9455 11.6288 21.6795 11.4397 21.4833C11.2506 21.2871 10.9944 21.1765 10.727 21.1757V21.1757Z" fill="#1D1818"/>
<path d="M18.2137 24.9894C17.6864 24.9894 17.1711 24.8271 16.7327 24.5231C16.2943 24.2192 15.9526 23.7871 15.7509 23.2816C15.5491 22.7761 15.4963 22.2199 15.5992 21.6833C15.7021 21.1466 15.9559 20.6537 16.3287 20.2668C16.7015 19.8799 17.1765 19.6164 17.6936 19.5097C18.2107 19.403 18.7467 19.4577 19.2338 19.6671C19.7209 19.8765 20.1372 20.2311 20.4301 20.686C20.723 21.141 20.8794 21.6758 20.8794 22.223C20.8786 22.9564 20.5975 23.6596 20.0977 24.1782C19.598 24.6968 18.9204 24.9886 18.2137 24.9894V24.9894ZM18.2137 21.1757C18.0141 21.1757 17.819 21.2371 17.653 21.3522C17.4871 21.4673 17.3577 21.6308 17.2814 21.8222C17.205 22.0135 17.185 22.2241 17.2239 22.4273C17.2629 22.6304 17.359 22.817 17.5001 22.9635C17.6412 23.1099 17.8211 23.2097 18.0168 23.2501C18.2126 23.2905 18.4155 23.2697 18.5998 23.1905C18.7842 23.1112 18.9418 22.977 19.0527 22.8048C19.1636 22.6325 19.2228 22.4301 19.2228 22.223C19.222 21.9455 19.1155 21.6795 18.9264 21.4833C18.7373 21.2871 18.4811 21.1765 18.2137 21.1757V21.1757Z" fill="#1D1818"/>
</svg>
