<svg width="22" height="20" viewBox="0 0 22 20" fill="none" xmlns="http://www.w3.org/2000/svg">
<g clip-path="url(#clip0_0_365)">
<path d="M11.0001 19.9896C10.7925 19.994 10.589 19.9065 10.4164 19.7386L1.70158 10.7493C-0.566134 8.40516 -0.566134 4.59332 1.70158 2.2407C2.91958 1.05858 4.35667 0.448395 5.81965 0.492193C7.28355 0.452165 8.72072 1.06684 9.93772 2.25347L11.0001 3.34682L12.0624 2.25347C14.333 -0.0906438 18.0279 -0.0906438 20.2986 2.25347C22.5692 4.59758 22.5692 8.40516 20.2986 10.762L11.5867 19.7386C11.413 19.9066 11.2085 19.9941 11.0001 19.9896V19.9896ZM5.81965 2.19391C4.7716 2.17036 3.74381 2.61581 2.87483 3.47019C1.2492 5.14638 1.2492 7.87338 2.87483 9.54957L11.0001 17.9348L19.1282 9.54106C20.7509 7.86487 20.7509 5.13787 19.1282 3.46168C17.5055 1.7855 14.8613 1.76848 13.2328 3.47019L11.5867 5.17191C11.4127 5.33549 11.21 5.42249 11.003 5.42249C10.7959 5.42249 10.5933 5.33549 10.4193 5.17191L8.7557 3.47019C7.88911 2.61856 6.86469 2.17325 5.81965 2.19391V2.19391Z" fill="#1D1818"/>
</g>
<defs>
<clipPath id="clip0_0_365">
<rect width="22" height="19.4974" fill="white" transform="translate(0 0.492188)"/>
</clipPath>
</defs>
</svg>
