<svg width="189" height="41" viewBox="0 0 189 41" fill="none" xmlns="http://www.w3.org/2000/svg">
<path fill-rule="evenodd" clip-rule="evenodd" d="M19.5 0.64917C30.27 0.64917 39 9.60775 39 20.6596C39 31.7115 30.27 40.6701 19.5 40.6701C8.73005 40.6701 0 31.7115 0 20.6596C0 9.60775 8.73005 0.64917 19.5 0.64917Z" fill="#FBD051"/>
<path d="M12.1078 32.0873H9.05466C8.70391 32.0873 8.55966 31.9004 8.68109 31.5437L15.1438 12.5884H11.0455C10.7349 12.5884 10.5779 12.4388 10.5779 12.1404V9.71132C10.5779 9.39187 10.7342 9.23194 11.0455 9.23194C16.6822 9.23194 22.3185 9.23194 27.9553 9.23194C28.2673 9.23194 28.4224 9.39266 28.4224 9.71132V12.1404C28.4224 12.438 28.2666 12.5884 27.9553 12.5884H23.8634L30.3262 31.5437C30.4298 31.9064 30.3053 32.0873 29.9522 32.0873H26.8991C26.6087 32.0873 26.432 31.9599 26.3693 31.704L24.8434 26.8773H14.1639L12.6376 31.704C12.5575 31.9592 12.3765 32.0873 12.1078 32.0873ZM32.8178 16.3012C34.7278 15.5341 36.8245 15.1508 39.1084 15.1508C41.2671 15.1508 43.0007 15.7365 44.3082 16.9083C45.6164 18.0802 46.2704 19.8267 46.2704 22.149V25.6641C46.2704 27.7309 45.6265 29.3817 44.3395 30.6175C43.0525 31.8528 41.4024 32.4707 39.3884 32.4707C38.2468 32.4707 37.1463 32.2365 36.0874 31.7679V37.6796C36.0874 37.999 35.9316 38.1589 35.6203 38.1589H32.9423C32.631 38.1589 32.4755 37.999 32.4755 37.6796V16.8127C32.4755 16.5567 32.5896 16.3865 32.8178 16.3012ZM39.0771 29.2115C41.4229 29.2115 42.5958 28.0392 42.5958 25.6963V22.1176C42.5958 20.7962 42.295 19.8485 41.6932 19.2731C41.0911 18.6981 40.1982 18.41 39.0149 18.41C37.7689 18.41 36.7932 18.5592 36.0874 18.8576V28.3166C36.9386 28.913 37.9348 29.2115 39.0771 29.2115ZM62.9926 32.0873H59.8475C59.5775 32.0873 59.3908 31.9913 59.2867 31.8L54.4292 25.2487L53.1523 26.6546V31.608C53.1523 31.9274 52.9961 32.0873 52.6848 32.0873H50.1004C49.7891 32.0873 49.6336 31.9274 49.6336 31.608V16.0139C49.6336 15.6944 49.7891 15.5341 50.1004 15.5341H52.6848C52.9961 15.5341 53.1523 15.6944 53.1523 16.0139V22.1807L58.7264 15.7897C58.8505 15.6194 59.0377 15.5341 59.2867 15.5341H62.4323C62.6391 15.5341 62.7695 15.5873 62.8213 15.6944C62.8731 15.8008 62.8371 15.9389 62.7122 16.1091L56.8269 22.6605L63.3039 31.5123C63.5321 31.8957 63.4284 32.0873 62.9926 32.0873ZM78.3443 26.0157C78.3443 27.9971 77.7012 29.5682 76.4142 30.729C75.1265 31.8905 73.4033 32.4707 71.2451 32.4707C69.0857 32.4707 67.3625 31.8905 66.0755 30.729C64.7885 29.5682 64.1446 27.9971 64.1446 26.0157V21.7339C64.1446 19.7314 64.7885 18.1334 66.0755 16.9401C67.3625 15.7476 69.0857 15.1508 71.2451 15.1508C73.4033 15.1508 75.1265 15.7476 76.4142 16.9401C77.7012 18.1334 78.3443 19.7314 78.3443 21.7339V26.0157ZM67.7882 26.0157C67.7882 28.1035 68.9402 29.1476 71.2451 29.1476C72.3661 29.1476 73.2223 28.8813 73.8136 28.3483C74.4057 27.8158 74.7011 27.038 74.7011 26.0157V21.7339C74.7011 20.6898 74.4002 19.8854 73.7985 19.3207C73.1964 18.7568 72.3449 18.4743 71.2451 18.4743C70.124 18.4743 69.2674 18.7513 68.6754 19.3052C68.0841 19.8588 67.7882 20.6688 67.7882 21.7339V26.0157ZM85.5995 32.0873H82.766C82.4752 32.0873 82.3298 31.9274 82.3298 31.608V9.71807C82.3298 9.39861 82.4752 9.23909 82.766 9.23909H86.1602C86.4092 9.23909 86.5751 9.35655 86.6583 9.59068L90.4573 16.8449C91.2462 18.3568 92.1287 20.2322 93.1044 22.4688H93.2285C94.2046 20.2322 95.0871 18.3568 95.8756 16.8449L99.6437 9.59068C99.7682 9.35655 99.9446 9.23909 100.173 9.23909H103.536C103.848 9.23909 104.004 9.39861 104.004 9.71807V31.608C104.004 31.9274 103.848 32.0873 103.536 32.0873H100.703C100.412 32.0873 100.266 31.9274 100.266 31.608V25.1848C100.266 22.6712 100.349 19.3263 100.515 15.1508L100.423 15.1186C99.7992 16.5036 98.8652 18.4743 97.6193 21.0303L94.8794 26.4951C94.7754 26.7296 94.5994 26.8467 94.3496 26.8467H91.9833C91.7339 26.8467 91.5579 26.7296 91.4539 26.4951L88.7137 21.0303C87.468 18.4743 86.5341 16.5036 85.9108 15.1186L85.8179 15.1508C85.9838 19.3263 86.0666 22.6712 86.0666 25.1848V31.608C86.0666 31.9274 85.9108 32.0873 85.5995 32.0873ZM121.598 21.7021V24.9292C121.598 25.2276 121.442 25.3768 121.13 25.3768H111.664V26.2709C111.664 27.2301 111.96 27.9594 112.551 28.4602C113.143 28.9611 113.947 29.2115 114.965 29.2115C116.48 29.2115 117.944 28.721 119.356 27.7416C119.604 27.5705 119.812 27.6027 119.978 27.8368L121.255 29.5948C121.463 29.8293 121.432 30.0528 121.162 30.2659C119.356 31.7357 117.248 32.4707 114.84 32.4707C112.93 32.4707 111.316 31.9326 109.998 30.8571C108.68 29.7809 108.021 28.2424 108.021 26.2396V21.7021C108.021 19.5072 108.685 17.8671 110.014 16.7806C111.342 15.6944 112.961 15.1508 114.871 15.1508C116.76 15.1508 118.354 15.6944 119.651 16.7806C120.949 17.8671 121.598 19.5072 121.598 21.7021ZM118.079 21.67C118.079 20.5616 117.778 19.7418 117.176 19.2092C116.574 18.6763 115.806 18.41 114.871 18.41C112.733 18.41 111.664 19.4965 111.664 21.67V22.5002H118.079V21.67ZM128.323 17.1322C129.404 16.5996 130.607 16.3333 131.936 16.3333C133.908 16.3333 135.507 16.9032 136.731 18.0429C137.956 19.1826 138.569 20.7962 138.569 22.8839V25.728C138.569 27.965 137.899 29.648 136.56 30.777C135.221 31.906 133.555 32.4707 131.562 32.4707C129.632 32.4707 128.007 31.9008 126.689 30.7611C125.371 29.6214 124.711 27.9329 124.711 25.6963V16.0456C124.711 14.0856 125.339 12.5412 126.595 11.4122C127.852 10.2828 129.341 9.54783 131.064 9.20734C133.535 8.75971 135.102 8.36525 135.766 8.02477C136.057 7.89659 136.264 7.95056 136.389 8.18469L137.541 10.1974C137.666 10.4959 137.613 10.709 137.385 10.8371C136.659 11.263 134.977 11.7848 132.341 12.4023C131.759 12.5515 131.271 12.7007 130.877 12.8499C130.483 12.9991 130.067 13.2122 129.632 13.4888C129.196 13.7662 128.868 14.1285 128.651 14.5757C128.433 15.023 128.323 15.5555 128.323 16.1734V17.1322ZM131.531 29.1476C132.507 29.1476 133.311 28.8702 133.944 28.3166C134.577 27.7626 134.894 26.9106 134.894 25.7602V22.9478C134.894 20.6469 133.794 19.4965 131.593 19.4965C130.368 19.4965 129.279 19.7525 128.323 20.2636V25.728C128.323 26.8999 128.625 27.7626 129.227 28.3166C129.829 28.8702 130.597 29.1476 131.531 29.1476ZM155.011 21.7021V24.9292C155.011 25.2276 154.855 25.3768 154.543 25.3768H145.077V26.2709C145.077 27.2301 145.373 27.9594 145.964 28.4602C146.556 28.9611 147.36 29.2115 148.378 29.2115C149.893 29.2115 151.356 28.721 152.768 27.7416C153.017 27.5705 153.225 27.6027 153.391 27.8368L154.668 29.5948C154.876 29.8293 154.845 30.0528 154.575 30.2659C152.768 31.7357 150.661 32.4707 148.253 32.4707C146.343 32.4707 144.729 31.9326 143.411 30.8571C142.092 29.7809 141.433 28.2424 141.433 26.2396V21.7021C141.433 19.5072 142.098 17.8671 143.427 16.7806C144.755 15.6944 146.374 15.1508 148.284 15.1508C150.173 15.1508 151.767 15.6944 153.065 16.7806C154.362 17.8671 155.011 19.5072 155.011 21.7021ZM151.492 21.67C151.492 20.5616 151.191 19.7418 150.588 19.2092C149.987 18.6763 149.219 18.41 148.284 18.41C146.146 18.41 145.077 19.4965 145.077 21.67V22.5002H151.492V21.67ZM162.826 26.6546C162.432 28.6789 161.83 30.1004 161.02 30.921C160.211 31.7413 158.924 32.1834 157.159 32.2473C156.868 32.2473 156.723 32.0873 156.723 31.7679V29.4349C156.723 29.1579 156.868 28.9876 157.159 28.9234C157.761 28.8813 158.233 28.6257 158.576 28.1567C158.918 27.688 159.204 26.8467 159.432 25.632C159.785 23.5232 160.045 20.3065 160.211 15.9817C160.252 15.6833 160.408 15.5341 160.678 15.5341H171.265C171.577 15.5341 171.733 15.6833 171.733 15.9817V31.608C171.733 31.9274 171.577 32.0873 171.265 32.0873H168.587C168.276 32.0873 168.121 31.9274 168.121 31.608V18.7937H163.574C163.47 21.8402 163.221 24.4605 162.826 26.6546ZM182.569 32.0873H176.123C175.811 32.0873 175.656 31.9274 175.656 31.608V15.9817C175.656 15.6833 175.811 15.5341 176.123 15.5341H178.801C179.112 15.5341 179.268 15.6833 179.268 15.9817V20.9029H182.569C184.479 20.9029 186.021 21.4037 187.194 22.4049C188.366 23.4061 188.953 24.7911 188.953 26.559C188.953 28.4547 188.387 29.8504 187.255 30.7452C186.124 31.6397 184.562 32.0873 182.569 32.0873ZM179.268 23.9387V29.0194H181.946C184.188 29.0194 185.309 28.1781 185.309 26.4951C185.33 25.6221 185.06 24.9768 184.5 24.5621C183.939 24.1466 183.088 23.9387 181.946 23.9387H179.268ZM18.6436 12.5884L15.2227 23.3923H23.7842L20.3641 12.5884H18.6436Z" fill="black"/>
</svg>
