<svg width="21" height="22" viewBox="0 0 21 22" fill="none" xmlns="http://www.w3.org/2000/svg">
<g clip-path="url(#clip0_0_396)">
<path d="M10.5 21.5497C10.2911 21.5497 10.0943 21.4475 9.97064 21.2745L4.3044 13.3453C3.20563 11.8077 2.625 9.98767 2.625 8.08115C2.625 3.62527 6.15779 0 10.5 0C14.8422 0 18.375 3.62527 18.375 8.08115C18.375 9.98767 17.7944 11.8077 16.6959 13.3453L11.0294 21.2745C10.9057 21.4475 10.7089 21.5497 10.5 21.5497ZM10.5 1.34686C6.88133 1.34686 3.9375 4.36775 3.9375 8.08115C3.9375 9.69896 4.43033 11.2441 5.36279 12.5489L10.5 19.7376L15.6375 12.5489C16.5697 11.2441 17.0625 9.69896 17.0625 8.08115C17.0625 4.36775 14.1187 1.34686 10.5 1.34686ZM10.5 11.4483C8.69083 11.4483 7.21875 9.93769 7.21875 8.08115C7.21875 6.22462 8.69083 4.714 10.5 4.714C12.3092 4.714 13.7812 6.22462 13.7812 8.08115C13.7812 9.93769 12.3092 11.4483 10.5 11.4483ZM10.5 6.06086C9.41437 6.06086 8.53125 6.9671 8.53125 8.08115C8.53125 9.1952 9.41437 10.1014 10.5 10.1014C11.5856 10.1014 12.4688 9.1952 12.4688 8.08115C12.4688 6.9671 11.5856 6.06086 10.5 6.06086Z" fill="#384685"/>
</g>
<defs>
<clipPath id="clip0_0_396">
<rect width="21" height="21.5497" fill="white"/>
</clipPath>
</defs>
</svg>
