<svg width="23" height="25" viewBox="0 0 23 25" fill="none" xmlns="http://www.w3.org/2000/svg">
<path d="M20.7712 22.9127C20.588 22.9127 20.4047 22.8409 20.2648 22.6974L11.8272 14.0371C11.5474 13.75 11.5474 13.2848 11.8272 12.9976C12.107 12.7104 12.5603 12.7104 12.84 12.9976L21.2777 21.6578C21.5574 21.945 21.5574 22.4102 21.2777 22.6974C21.1378 22.8409 20.9545 22.9127 20.7712 22.9127Z" fill="#A8D1E7"/>
<path d="M8.11447 16.0429C6.40358 16.0429 4.69199 15.3742 3.3896 14.0371C0.784096 11.3629 0.784096 7.01193 3.3896 4.3377C4.65143 3.04222 6.32944 2.32861 8.11447 2.32861C9.9002 2.32861 11.5782 3.04222 12.84 4.3377C15.4455 7.01193 15.4455 11.3629 12.84 14.0371C11.5376 15.3742 9.82605 16.0429 8.11447 16.0429ZM8.11447 3.7989C6.71274 3.7989 5.39426 4.35924 4.40242 5.37724C2.35579 7.47822 2.35579 10.8966 4.40242 12.9976C6.44975 15.0989 9.78129 15.0975 11.8272 12.9976C13.8738 10.8966 13.8738 7.47822 11.8272 5.37724C10.8354 4.35924 9.51689 3.7989 8.11447 3.7989Z" fill="#A8D1E7"/>
</svg>
