<svg width="20" height="20" viewBox="0 0 20 20" fill="none" xmlns="http://www.w3.org/2000/svg">
<path d="M12.8958 19.8848C14.435 19.8846 15.8115 19.3549 16.8763 18.2621L18.4314 16.6665C19.2069 15.8703 19.2069 14.5746 18.4312 13.7789L16.0684 11.3542C15.6642 10.9392 15.1061 10.7238 14.5342 10.7601C13.9636 10.7976 13.4358 11.0856 13.0864 11.5498L11.5539 13.5863C10.4392 12.9721 9.39867 12.1729 8.45685 11.2062C7.51984 10.2447 6.74375 9.18286 6.14674 8.04657L8.1363 6.47004C8.58869 6.11166 8.86932 5.57034 8.9059 4.98497C8.94252 4.39943 8.7316 3.82543 8.32711 3.41036L5.96451 0.985688C5.5887 0.599827 5.089 0.387451 4.55729 0.387451C4.02579 0.387451 3.52611 0.599816 3.15049 0.985688L1.91362 2.2545C1.78598 2.36573 1.67989 2.46536 1.58133 2.56629C-1.299 5.52158 -0.165453 10.8129 4.33712 15.4331C7.17513 18.3456 10.2724 19.8846 12.8956 19.8846L12.8958 19.8848ZM2.52937 3.54008C2.616 3.4514 2.70723 3.3683 2.80014 3.28821C2.81458 3.27554 2.8286 3.26245 2.8422 3.24849L4.09895 1.95906C4.22136 1.83323 4.38415 1.76409 4.5572 1.76409C4.73046 1.76409 4.89325 1.83323 5.01588 1.95906L7.37848 4.38373C7.51219 4.52115 7.57935 4.70345 7.56721 4.89692C7.55508 5.09039 7.46594 5.26217 7.31633 5.38091L5.05872 7.1698C4.70383 7.45109 4.59231 7.95186 4.79339 8.36111C5.47285 9.74371 6.38617 11.0284 7.50799 12.1796C8.63478 13.3361 9.89362 14.2768 11.2498 14.9753C11.6478 15.1802 12.1351 15.0657 12.4086 14.7024L14.1477 12.3913C14.2632 12.2378 14.4308 12.1463 14.6193 12.134C14.8085 12.1199 14.9855 12.1905 15.1192 12.3275L17.482 14.7522C17.7348 15.0116 17.7346 15.4339 17.482 15.6933L15.9271 17.2889C13.6051 19.6711 9.22904 18.5084 5.28486 14.4608C1.34137 10.413 0.208099 5.92231 2.52945 3.53992L2.52937 3.54008Z" fill="#1D1818"/>
</svg>
